<svg xmlns="http://www.w3.org/2000/svg" width="32" height="32" enable-background="new 0 0 32 32" viewBox="0 0 32 32" id="left-arrow"><circle cx="16" cy="16" r="14" fill="#4CAEE5"></circle><path fill="#FFF" d="M23,12.529h-6.25V10c0-0.394-0.231-0.751-0.59-0.912c-0.358-0.163-0.78-0.097-1.074,0.165l-6.75,6
			C8.122,15.442,8,15.715,8,16s0.122,0.558,0.335,0.747l6.75,6C15.272,22.913,15.51,23,15.75,23c0.139,0,0.278-0.028,0.41-0.088
			c0.359-0.161,0.59-0.519,0.59-0.912v-2.529H23c0.552,0,1-0.447,1-1v-4.941C24,12.977,23.552,12.529,23,12.529z"></path><path fill="#0E4C8E" d="M30,16c0,7.73-6.27,14-14,14V2C23.73,2,30,8.27,30,16z" opacity=".3"></path></svg>