<svg xmlns="http://www.w3.org/2000/svg" enable-background="new 0 0 64 64" viewBox="0 0 64 64" id="edit-pencil-icon"><path d="M60.49,2.23C58.92,0.74,56.88-0.04,54.71,0c-2.15,0.06-4.16,0.95-5.64,2.5L4.02,49.17c-0.01,0-0.01,0.01-0.02,0.02
		c-0.08,0.09-0.15,0.18-0.21,0.29c-0.01,0.02-0.01,0.03-0.02,0.04c-0.03,0.07-0.06,0.14-0.09,0.21c-0.01,0.03-0.01,0.06-0.02,0.09
		c0,0.02-0.01,0.03-0.01,0.05l-2.62,12.4c-0.1,0.49,0.05,0.99,0.41,1.34C1.71,63.86,2.07,64,2.43,64c0.12,0,0.25-0.02,0.37-0.05
		l12.26-3.23c0.02-0.01,0.05-0.02,0.07-0.03s0.04-0.01,0.06-0.01c0.06-0.03,0.12-0.06,0.18-0.09c0.02-0.01,0.04-0.02,0.06-0.03
		c0.1-0.06,0.19-0.13,0.27-0.22c0.01,0,0.02-0.01,0.02-0.01l43.7-45.26c0.02-0.02,0.04-0.03,0.06-0.05
		c0.01-0.01,0.02-0.04,0.03-0.05l1.26-1.31c1.49-1.57,2.28-3.62,2.23-5.78S62.05,3.72,60.49,2.23z M4.31,60.59l1.8-8.51
		c3,1.28,5.18,3.36,6.61,6.29L4.31,60.59z M15.13,56.81c-1.67-3.27-4.21-5.68-7.55-7.2L48.83,6.88l7.56,7.19L15.13,56.81z
		 M58.71,11.68l-0.33,0.33l-7.56-7.2l0.31-0.32c0.97-1.01,2.26-1.59,3.66-1.62c1.39-0.03,2.71,0.47,3.72,1.43
		c1.01,0.97,1.59,2.26,1.63,3.66C60.17,9.35,59.66,10.67,58.71,11.68z"></path><path fill="#42c3fc" d="M60.14 7.96c.03 1.39-.48 2.71-1.43 3.72l-.33.33-7.56-7.2.31-.32c.97-1.01 2.26-1.59 3.66-1.62 1.39-.03 2.71.47 3.72 1.43C59.52 5.27 60.1 6.56 60.14 7.96zM12.72 58.37l-8.41 2.22 1.8-8.51C9.11 53.36 11.29 55.44 12.72 58.37z"></path><path fill="#ea526c" d="M56.39,14.07L15.13,56.81c-1.67-3.27-4.21-5.68-7.55-7.2L48.83,6.88L56.39,14.07z"></path></svg>