<svg xmlns="http://www.w3.org/2000/svg" viewBox="0 0 64 64" id="checklist"><rect width="46" height="52" x="3" y="9" fill="#c0ab91"></rect><rect width="40" height="46" x="6" y="12" fill="#bdfdff"></rect><path fill="#e0e0e2" d="M36,9v6a2.006,2.006,0,0,1-2,2H18a2.006,2.006,0,0,1-2-2V9h4A6,6,0,0,1,32,9Z"></path><circle cx="26" cy="7" r="2" fill="#2d2d30"></circle><rect width="5" height="2" x="17" y="10" fill="#fff" rx="1"></rect><rect width="8" height="8" x="12" y="23" fill="#00e7f0"></rect><rect width="8" height="8" x="12" y="36" fill="#00e7f0"></rect><path fill="#ff5023" d="M14.707 25.293l-1.414 1.414 2 2a1 1 0 0 0 1.288.107l7-5-1.162-1.628-6.311 4.508zM16.108 39.694l-1.4-1.4-1.414 1.414 2 2a1 1 0 0 0 1.288.107l7-5-1.162-1.628z"></path><rect width="2" height="2" x="29" y="22" fill="#1a6fb0"></rect><rect width="8" height="2" x="33" y="22" fill="#1a6fb0"></rect><rect width="12" height="2" x="29" y="26" fill="#1a6fb0"></rect><path fill="#ff5023" d="M61,36v3H29V36a2.006,2.006,0,0,1,2-2H59A2.006,2.006,0,0,1,61,36Z"></path><path fill="#ebe5dd" d="M29,39H61a0,0,0,0,1,0,0V59a2,2,0,0,1-2,2H31a2,2,0,0,1-2-2V39A0,0,0,0,1,29,39Z"></path><polygon fill="#787680" points="56 34 56 36 53 36 53 34 53 32 56 32 56 34"></polygon><rect width="4" height="4" x="33" y="50" fill="#00ccb3"></rect><rect width="4" height="4" x="53" y="54" fill="#00ccb3"></rect><rect width="4" height="4" x="45" y="50" fill="#91dc5a"></rect><rect width="4" height="4" x="45" y="54" fill="#00ccb3"></rect><rect width="4" height="4" x="37" y="54" fill="#00ccb3"></rect><rect width="4" height="4" x="37" y="50" fill="#91dc5a"></rect><rect width="4" height="4" x="33" y="46" fill="#91dc5a"></rect><rect width="4" height="4" x="33" y="42" fill="#00ccb3"></rect><rect width="4" height="4" x="41" y="54" fill="#91dc5a"></rect><rect width="4" height="4" x="45" y="46" fill="#00ccb3"></rect><rect width="4" height="4" x="33" y="54" fill="#91dc5a"></rect><rect width="4" height="4" x="41" y="42" fill="#00ccb3"></rect><rect width="4" height="4" x="45" y="42" fill="#91dc5a"></rect><rect width="4" height="4" x="49" y="50" fill="#00ccb3"></rect><rect width="4" height="4" x="49" y="54" fill="#91dc5a"></rect><rect width="4" height="4" x="53" y="50" fill="#91dc5a"></rect><rect width="4" height="4" x="53" y="46" fill="#00ccb3"></rect><rect width="4" height="4" x="49" y="46" fill="#91dc5a"></rect><rect width="4" height="4" x="53" y="42" fill="#91dc5a"></rect><rect width="4" height="4" x="49" y="42" fill="#00ccb3"></rect><rect width="4" height="4" x="37" y="46" fill="#00ccb3"></rect><rect width="4" height="4" x="37" y="42" fill="#91dc5a"></rect><rect width="4" height="4" x="41" y="50" fill="#00ccb3"></rect><polygon fill="#787680" points="37 34 37 36 34 36 34 34 34 32 37 32 37 34"></polygon><rect width="4" height="4" x="41" y="46" fill="#91dc5a"></rect><rect width="32" height="1" x="29" y="39" fill="#c6c5ca"></rect></svg>